<?xml version="1.0" encoding="UTF-8" standalone="no"?>
<svg
   xmlns:dc="http://purl.org/dc/elements/1.1/"
   xmlns:cc="http://creativecommons.org/ns#"
   xmlns:rdf="http://www.w3.org/1999/02/22-rdf-syntax-ns#"
   xmlns:svg="http://www.w3.org/2000/svg"
   xmlns="http://www.w3.org/2000/svg"
   viewBox="0 0 572.74268 148.99733"
   height="148.99733"
   width="572.74268"
   xml:space="preserve"
   id="svg2"
   version="1.1"><metadata
     id="metadata8"><rdf:RDF><cc:Work
         rdf:about=""><dc:format>image/svg+xml</dc:format><dc:type
           rdf:resource="http://purl.org/dc/dcmitype/StillImage" /></cc:Work></rdf:RDF></metadata><defs
     id="defs6"><clipPath
       id="clipPath18"
       clipPathUnits="userSpaceOnUse"><path
         id="path16"
         d="M 0,111.748 H 429.557 V 0 H 0 Z" /></clipPath></defs><g
     transform="matrix(1.3333333,0,0,-1.3333333,0,148.99733)"
     id="g10"><g
       id="g12"><g
         clip-path="url(#clipPath18)"
         id="g14"><g
           transform="translate(127.352,60.5937)"
           id="g20"><path
             id="path22"
             style="fill:#292929;fill-opacity:1;fill-rule:nonzero;stroke:none"
             d="m 0,0 c 0,-1.621 0.423,-2.751 5.006,-2.751 4.087,0 7.119,0.636 10.151,2.54 1.975,1.198 3.242,2.256 3.455,4.581 h 0.494 c 0,-1.128 0,-2.042 -1.128,-3.806 -0.493,-0.775 -2.538,-3.453 -2.821,-4.653 -2.045,0.072 -4.159,0.142 -6.204,0.142 H -5.851 c -0.564,-0.07 -0.917,-0.142 -1.27,-0.142 -0.424,0 -0.845,0.072 -1.198,0.142 v 0.775 c 0.423,-0.07 0.847,-0.07 1.268,-0.07 2.398,0 3.104,1.197 3.104,3.382 v 26.085 c 0,2.821 0,5.923 -3.598,5.923 -0.351,0 -0.774,0 -1.127,-0.072 v 0.776 c 0.564,0.071 1.127,0.143 1.764,0.143 2.042,0 4.016,-0.426 4.721,-0.426 0.636,0 2.47,0.426 4.021,0.426 0.915,0 1.691,-0.072 2.536,-0.143 v -0.776 c -0.494,0.072 -0.634,0.072 -1.408,0.072 -1.128,0 -1.694,-0.14 -2.045,-0.493 C 0.494,31.231 0,30.527 0,29.257 Z" /></g><g
           transform="translate(127.352,60.5937)"
           id="g24"><path
             id="path26"
             style="fill:none;stroke:#4d4d4e;stroke-width:0.498;stroke-linecap:butt;stroke-linejoin:miter;stroke-miterlimit:4;stroke-dasharray:none;stroke-opacity:1"
             d="m 0,0 c 0,-1.621 0.423,-2.751 5.006,-2.751 4.087,0 7.119,0.636 10.151,2.54 1.975,1.198 3.242,2.256 3.455,4.581 h 0.494 c 0,-1.128 0,-2.042 -1.128,-3.806 -0.493,-0.775 -2.538,-3.453 -2.821,-4.653 -2.045,0.072 -4.159,0.142 -6.204,0.142 H -5.851 c -0.564,-0.07 -0.917,-0.142 -1.27,-0.142 -0.424,0 -0.845,0.072 -1.198,0.142 v 0.775 c 0.423,-0.07 0.847,-0.07 1.268,-0.07 2.398,0 3.104,1.197 3.104,3.382 v 26.085 c 0,2.821 0,5.923 -3.598,5.923 -0.351,0 -0.774,0 -1.127,-0.072 v 0.776 c 0.564,0.071 1.127,0.143 1.764,0.143 2.042,0 4.016,-0.426 4.721,-0.426 0.636,0 2.47,0.426 4.021,0.426 0.915,0 1.691,-0.072 2.536,-0.143 v -0.776 c -0.494,0.072 -0.634,0.072 -1.408,0.072 -1.128,0 -1.694,-0.14 -2.045,-0.493 C 0.494,31.231 0,30.527 0,29.257 Z" /></g><g
           transform="translate(166.4778,92.8121)"
           id="g28"><path
             id="path30"
             style="fill:#292929;fill-opacity:1;fill-rule:nonzero;stroke:none"
             d="m 0,0 c -8.6,0 -14.947,-7.262 -14.947,-17.132 0,-7.755 5.077,-18.189 16.215,-18.189 8.885,0 14.736,6.485 14.736,15.228 C 16.004,-13.042 12.055,0 0,0 m 0.777,-36.591 c -13.045,0 -19.6,8.672 -19.6,18.332 0,10.01 8.53,19.457 19.457,19.457 11.281,0 19.246,-7.262 19.246,-18.683 0,-7.895 -6.555,-19.106 -19.103,-19.106" /></g><g
           transform="translate(166.4778,92.8121)"
           id="g32"><path
             id="path34"
             style="fill:none;stroke:#4d4d4e;stroke-width:0.498;stroke-linecap:butt;stroke-linejoin:miter;stroke-miterlimit:4;stroke-dasharray:none;stroke-opacity:1"
             d="m 0,0 c -8.6,0 -14.947,-7.262 -14.947,-17.132 0,-7.755 5.077,-18.189 16.215,-18.189 8.885,0 14.736,6.485 14.736,15.228 C 16.004,-13.042 12.055,0 0,0 Z m 0.777,-36.591 c -13.045,0 -19.6,8.672 -19.6,18.332 0,10.01 8.53,19.457 19.457,19.457 11.281,0 19.246,-7.262 19.246,-18.683 0,-7.895 -6.555,-19.106 -19.103,-19.106 z" /></g><g
           transform="translate(194.3236,90.1335)"
           id="g36"><path
             id="path38"
             style="fill:#292929;fill-opacity:1;fill-rule:nonzero;stroke:none"
             d="m 0,0 -1.338,1.338 c -1.058,1.058 -1.341,1.27 -2.822,1.27 h -0.844 v 0.775 c 0.423,0 1.198,0.072 2.679,0.072 1.901,0 3.453,-0.142 3.876,-0.426 0.423,-0.21 1.057,-0.633 1.411,-1.057 l 25.661,-29.75 v 24.393 c 0,3.102 -0.354,4.159 -1.058,4.936 -0.421,0.634 -1.691,1.057 -2.466,1.057 -0.423,0 -0.987,0 -1.412,-0.072 v 0.847 c 0.353,0.072 1.693,0.072 2.61,0.072 0.775,0 1.762,-0.213 3.313,-0.213 1.338,0 2.538,0.213 3.596,0.213 0.563,0 0.917,0 1.41,-0.072 V 2.536 c -0.353,0.072 -0.704,0.072 -1.057,0.072 -2.611,0 -3.455,-1.197 -3.455,-5.993 v -29.68 c 0,-0.211 -0.071,-0.564 -0.424,-0.775 0,0 -0.283,-0.072 -0.423,-0.072 -0.141,0 -0.494,0 -0.775,0.142 L 1.481,-1.762 v -24.889 c 0,-3.099 0.353,-4.157 1.057,-4.931 0.424,-0.636 1.694,-1.06 2.468,-1.06 0.424,0 0.987,0 1.409,0.07 v -0.847 c -0.351,-0.067 -1.692,-0.067 -2.609,-0.067 -0.774,0 -1.761,0.21 -3.312,0.21 -1.339,0 -2.539,-0.21 -3.596,-0.21 -0.564,0 -0.917,0 -1.408,0.067 v 0.847 c 0.35,-0.07 0.704,-0.07 1.055,-0.07 2.61,0 3.455,1.198 3.455,5.991 z" /></g><g
           transform="translate(194.3236,90.1335)"
           id="g40"><path
             id="path42"
             style="fill:none;stroke:#4d4d4e;stroke-width:0.498;stroke-linecap:butt;stroke-linejoin:miter;stroke-miterlimit:4;stroke-dasharray:none;stroke-opacity:1"
             d="m 0,0 -1.338,1.338 c -1.058,1.058 -1.341,1.27 -2.822,1.27 h -0.844 v 0.775 c 0.423,0 1.198,0.072 2.679,0.072 1.901,0 3.453,-0.142 3.876,-0.426 0.423,-0.21 1.057,-0.633 1.411,-1.057 l 25.661,-29.75 v 24.393 c 0,3.102 -0.354,4.159 -1.058,4.936 -0.421,0.634 -1.691,1.057 -2.466,1.057 -0.423,0 -0.987,0 -1.412,-0.072 v 0.847 c 0.353,0.072 1.693,0.072 2.61,0.072 0.775,0 1.762,-0.213 3.313,-0.213 1.338,0 2.538,0.213 3.596,0.213 0.563,0 0.917,0 1.41,-0.072 V 2.536 c -0.353,0.072 -0.704,0.072 -1.057,0.072 -2.611,0 -3.455,-1.197 -3.455,-5.993 v -29.68 c 0,-0.211 -0.071,-0.564 -0.424,-0.775 0,0 -0.283,-0.072 -0.423,-0.072 -0.141,0 -0.494,0 -0.775,0.142 L 1.481,-1.762 v -24.889 c 0,-3.099 0.353,-4.157 1.057,-4.931 0.424,-0.636 1.694,-1.06 2.468,-1.06 0.424,0 0.987,0 1.409,0.07 v -0.847 c -0.351,-0.067 -1.692,-0.067 -2.609,-0.067 -0.774,0 -1.761,0.21 -3.312,0.21 -1.339,0 -2.539,-0.21 -3.596,-0.21 -0.564,0 -0.917,0 -1.408,0.067 v 0.847 c 0.35,-0.07 0.704,-0.07 1.055,-0.07 2.61,0 3.455,1.198 3.455,5.991 z" /></g><g
           transform="translate(263.3407,82.0962)"
           id="g44"><path
             id="path46"
             style="fill:#292929;fill-opacity:1;fill-rule:nonzero;stroke:none"
             d="m 0,0 c 0.283,1.691 0.353,1.832 0.353,2.325 0,1.551 -4.513,8.462 -12.548,8.462 -9.166,0 -14.524,-8.885 -14.524,-17.765 0,-10.437 5.922,-17.696 14.664,-17.696 10.01,0 10.01,5.074 10.01,10.291 0,1.834 0,4.653 -3.102,4.653 L -6.555,-9.8 v 0.777 c 0.634,0.07 0.704,0.07 1.481,0.07 0.774,0 4.297,-0.283 5.004,-0.283 0.634,0 3.385,0.283 4.019,0.283 1.057,0 1.127,0 1.902,-0.213 V -9.94 c -0.492,0.07 -1.058,0.21 -1.551,0.21 -2.466,0 -2.538,-2.398 -2.538,-3.806 v -3.949 c 0,-1.691 0,-1.832 0.353,-2.608 -0.634,-0.775 -1.128,-1.338 -2.892,-2.468 -1.691,-1.058 -5.074,-3.313 -11.278,-3.313 -11.14,0 -19.457,8.389 -19.457,18.259 0,11.634 9.94,19.53 19.244,19.53 2.328,0 4.232,-0.564 5.64,-1.058 2.892,-1.06 3.245,-1.127 4.019,-1.127 1.411,0 1.832,0.14 2.539,0.421 C 0,8.953 1.057,3.876 1.057,2.749 1.057,1.481 0.847,0.844 0.564,0 Z" /></g><g
           transform="translate(263.3407,82.0962)"
           id="g48"><path
             id="path50"
             style="fill:none;stroke:#4d4d4e;stroke-width:0.498;stroke-linecap:butt;stroke-linejoin:miter;stroke-miterlimit:4;stroke-dasharray:none;stroke-opacity:1"
             d="m 0,0 c 0.283,1.691 0.353,1.832 0.353,2.325 0,1.551 -4.513,8.462 -12.548,8.462 -9.166,0 -14.524,-8.885 -14.524,-17.765 0,-10.437 5.922,-17.696 14.664,-17.696 10.01,0 10.01,5.074 10.01,10.291 0,1.834 0,4.653 -3.102,4.653 L -6.555,-9.8 v 0.777 c 0.634,0.07 0.704,0.07 1.481,0.07 0.774,0 4.297,-0.283 5.004,-0.283 0.634,0 3.385,0.283 4.019,0.283 1.057,0 1.127,0 1.902,-0.213 V -9.94 c -0.492,0.07 -1.058,0.21 -1.551,0.21 -2.466,0 -2.538,-2.398 -2.538,-3.806 v -3.949 c 0,-1.691 0,-1.832 0.353,-2.608 -0.634,-0.775 -1.128,-1.338 -2.892,-2.468 -1.691,-1.058 -5.074,-3.313 -11.278,-3.313 -11.14,0 -19.457,8.389 -19.457,18.259 0,11.634 9.94,19.53 19.244,19.53 2.328,0 4.232,-0.564 5.64,-1.058 2.892,-1.06 3.245,-1.127 4.019,-1.127 1.411,0 1.832,0.14 2.539,0.421 C 0,8.953 1.057,3.876 1.057,2.749 1.057,1.481 0.847,0.844 0.564,0 Z" /></g><g
           transform="translate(280.2591,61.2277)"
           id="g52"><path
             id="path54"
             style="fill:#292929;fill-opacity:1;fill-rule:nonzero;stroke:none"
             d="m 0,0 c 0,-1.338 0,-3.736 2.891,-3.736 0.564,0 1.058,0.14 1.549,0.281 V -4.3 C 3.666,-4.513 3.242,-4.581 2.538,-4.581 c -0.704,0 -3.806,0.351 -4.44,0.351 -0.847,0 -4.513,-0.351 -5.289,-0.351 -0.422,0 -0.915,0 -1.409,0.068 v 0.777 c 2.751,0 4.724,0 4.724,5.004 v 26.157 c 0,2.045 -0.143,4.089 -2.962,4.089 -0.775,0 -0.847,0 -1.481,-0.072 v 0.776 c 0.634,0.143 1.128,0.211 2.045,0.211 1.127,0 6.133,-0.281 7.191,-0.281 h 8.462 c 1.198,0 2.182,0 3.593,0.281 0.283,-0.987 1.764,-4.23 2.045,-4.934 0.493,-1.198 0.493,-1.621 0.493,-2.679 H 14.946 C 14.874,29.75 7.261,30.948 2.538,30.948 1.764,30.948 0,30.878 0,29.61 V 15.44 c 8.106,0 10.01,0 10.01,2.819 0,0.494 -0.14,0.987 -0.28,1.481 l 0.563,0.283 c 0.284,-0.564 0.494,-1.06 0.494,-1.834 0,-0.351 -0.143,-1.975 -0.143,-2.255 0,-1.411 0.073,-1.621 0.637,-3.032 0.563,-1.268 0.563,-1.481 0.634,-3.526 H 11.351 C 10.998,14.1 9.943,14.1 0,14.1 Z" /></g><g
           transform="translate(280.2591,61.2277)"
           id="g56"><path
             id="path58"
             style="fill:none;stroke:#4d4d4e;stroke-width:0.498;stroke-linecap:butt;stroke-linejoin:miter;stroke-miterlimit:4;stroke-dasharray:none;stroke-opacity:1"
             d="m 0,0 c 0,-1.338 0,-3.736 2.891,-3.736 0.564,0 1.058,0.14 1.549,0.281 V -4.3 C 3.666,-4.513 3.242,-4.581 2.538,-4.581 c -0.704,0 -3.806,0.351 -4.44,0.351 -0.847,0 -4.513,-0.351 -5.289,-0.351 -0.422,0 -0.915,0 -1.409,0.068 v 0.777 c 2.751,0 4.724,0 4.724,5.004 v 26.157 c 0,2.045 -0.143,4.089 -2.962,4.089 -0.775,0 -0.847,0 -1.481,-0.072 v 0.776 c 0.634,0.143 1.128,0.211 2.045,0.211 1.127,0 6.133,-0.281 7.191,-0.281 h 8.462 c 1.198,0 2.182,0 3.593,0.281 0.283,-0.987 1.764,-4.23 2.045,-4.934 0.493,-1.198 0.493,-1.621 0.493,-2.679 H 14.946 C 14.874,29.75 7.261,30.948 2.538,30.948 1.764,30.948 0,30.878 0,29.61 V 15.44 c 8.106,0 10.01,0 10.01,2.819 0,0.494 -0.14,0.987 -0.28,1.481 l 0.563,0.283 c 0.284,-0.564 0.494,-1.06 0.494,-1.834 0,-0.351 -0.143,-1.975 -0.143,-2.255 0,-1.411 0.073,-1.621 0.637,-3.032 0.563,-1.268 0.563,-1.481 0.634,-3.526 H 11.351 C 10.998,14.1 9.943,14.1 0,14.1 Z" /></g><g
           transform="translate(312.5484,92.6703)"
           id="g60"><path
             id="path62"
             style="fill:#292929;fill-opacity:1;fill-rule:nonzero;stroke:none"
             d="m 0,0 c -0.494,0.07 -0.987,0.07 -1.411,0.07 -3.172,0 -3.315,-3.102 -3.315,-4.793 v -26.015 c 0,-1.41 0,-4.442 3.385,-4.442 0.284,0 0.634,0 0.988,0.07 v -0.915 h -2.398 c -0.632,0 -3.313,0.283 -3.877,0.283 -0.493,0 -2.748,-0.283 -3.172,-0.283 h -3.102 v 0.915 c 0.423,-0.07 0.915,-0.07 1.408,-0.07 2.822,0 2.822,2.045 2.822,4.513 v 25.874 c 0,2.678 0,4.863 -3.102,4.863 -0.424,0 -0.847,0 -1.271,-0.07 v 0.847 l 1.058,0.07 c 1.553,0 3.949,-0.283 5.502,-0.283 0.774,0 4.23,0.283 5.004,0.283 0.774,0 0.847,0 1.481,-0.07 z" /></g><g
           transform="translate(312.5484,92.6703)"
           id="g64"><path
             id="path66"
             style="fill:none;stroke:#4d4d4e;stroke-width:0.498;stroke-linecap:butt;stroke-linejoin:miter;stroke-miterlimit:4;stroke-dasharray:none;stroke-opacity:1"
             d="m 0,0 c -0.494,0.07 -0.987,0.07 -1.411,0.07 -3.172,0 -3.315,-3.102 -3.315,-4.793 v -26.015 c 0,-1.41 0,-4.442 3.385,-4.442 0.284,0 0.634,0 0.988,0.07 v -0.915 h -2.398 c -0.632,0 -3.313,0.283 -3.877,0.283 -0.493,0 -2.748,-0.283 -3.172,-0.283 h -3.102 v 0.915 c 0.423,-0.07 0.915,-0.07 1.408,-0.07 2.822,0 2.822,2.045 2.822,4.513 v 25.874 c 0,2.678 0,4.863 -3.102,4.863 -0.424,0 -0.847,0 -1.271,-0.07 v 0.847 l 1.058,0.07 c 1.553,0 3.949,-0.283 5.502,-0.283 0.774,0 4.23,0.283 5.004,0.283 0.774,0 0.847,0 1.481,-0.07 z" /></g><g
           transform="translate(338.9833,93.4461)"
           id="g68"><path
             id="path70"
             style="fill:#292929;fill-opacity:1;fill-rule:nonzero;stroke:none"
             d="M 0,0 C 0.283,-0.777 1.762,-4.019 2.045,-4.723 2.538,-5.921 2.538,-6.345 2.538,-7.402 H 1.974 c -0.07,4.934 -7.685,6.134 -12.408,6.134 -0.777,0 -2.538,-0.073 -2.538,-1.341 v -14.169 h 6.204 c 3.385,0 4.089,1.831 4.089,2.678 0,0.564 -0.21,1.198 -0.353,1.832 l 0.423,0.283 c 0.494,-0.774 0.494,-0.987 0.634,-2.962 0.213,-2.889 0.213,-3.242 0.707,-4.65 0.421,-1.2 0.421,-2.258 0.421,-3.175 h -0.494 c -0.28,4.794 -2.395,4.794 -11.631,4.653 v -15.087 c 0,-1.621 1.34,-2.398 2.679,-2.398 h 3.595 c 0.143,0 3.666,0 7.192,1.694 3.878,1.902 3.949,2.468 4.159,4.019 h 0.706 c -0.212,-1.34 -0.353,-1.974 -1.2,-3.244 -0.423,-0.635 -2.468,-3.313 -2.748,-3.947 -2.89,0.351 -12.832,0.494 -16.217,0.494 -1.692,0 -3.453,-0.211 -5.147,-0.211 -0.491,0 -1.055,0 -1.621,0.14 v 0.845 c 0.423,-0.07 0.919,-0.141 1.34,-0.141 0.564,0 1.481,0.141 2.115,0.564 0.917,0.917 1.268,2.256 1.268,4.443 v 26.155 c 0,2.044 -0.138,4.089 -2.959,4.089 -0.775,0 -0.845,0 -1.481,-0.073 V 0 c 0.636,0.143 1.128,0.211 2.045,0.211 1.127,0 6.133,-0.281 7.191,-0.281 h 8.459 z" /></g><g
           transform="translate(338.9833,93.4461)"
           id="g72"><path
             id="path74"
             style="fill:none;stroke:#4d4d4e;stroke-width:0.498;stroke-linecap:butt;stroke-linejoin:miter;stroke-miterlimit:4;stroke-dasharray:none;stroke-opacity:1"
             d="M 0,0 C 0.283,-0.777 1.762,-4.019 2.045,-4.723 2.538,-5.921 2.538,-6.345 2.538,-7.402 H 1.974 c -0.07,4.934 -7.685,6.134 -12.408,6.134 -0.777,0 -2.538,-0.073 -2.538,-1.341 v -14.169 h 6.204 c 3.385,0 4.089,1.831 4.089,2.678 0,0.564 -0.21,1.198 -0.353,1.832 l 0.423,0.283 c 0.494,-0.774 0.494,-0.987 0.634,-2.962 0.213,-2.889 0.213,-3.242 0.707,-4.65 0.421,-1.2 0.421,-2.258 0.421,-3.175 h -0.494 c -0.28,4.794 -2.395,4.794 -11.631,4.653 v -15.087 c 0,-1.621 1.34,-2.398 2.679,-2.398 h 3.595 c 0.143,0 3.666,0 7.192,1.694 3.878,1.902 3.949,2.468 4.159,4.019 h 0.706 c -0.212,-1.34 -0.353,-1.974 -1.2,-3.244 -0.423,-0.635 -2.468,-3.313 -2.748,-3.947 -2.89,0.351 -12.832,0.494 -16.217,0.494 -1.692,0 -3.453,-0.211 -5.147,-0.211 -0.491,0 -1.055,0 -1.621,0.14 v 0.845 c 0.423,-0.07 0.919,-0.141 1.34,-0.141 0.564,0 1.481,0.141 2.115,0.564 0.917,0.917 1.268,2.256 1.268,4.443 v 26.155 c 0,2.044 -0.138,4.089 -2.959,4.089 -0.775,0 -0.845,0 -1.481,-0.073 V 0 c 0.636,0.143 1.128,0.211 2.045,0.211 1.127,0 6.133,-0.281 7.191,-0.281 h 8.459 z" /></g><g
           transform="translate(356.9584,60.5937)"
           id="g76"><path
             id="path78"
             style="fill:#292929;fill-opacity:1;fill-rule:nonzero;stroke:none"
             d="m 0,0 c 0,-1.621 0.426,-2.751 5.006,-2.751 4.09,0 7.121,0.636 10.151,2.54 1.975,1.198 3.245,2.256 3.455,4.581 h 0.494 c 0,-1.128 0,-2.042 -1.128,-3.806 -0.493,-0.775 -2.538,-3.453 -2.821,-4.653 -2.042,0.072 -4.159,0.142 -6.202,0.142 H -5.851 c -0.564,-0.07 -0.917,-0.142 -1.268,-0.142 -0.423,0 -0.847,0.072 -1.198,0.142 v 0.775 c 0.421,-0.07 0.845,-0.07 1.266,-0.07 2.4,0 3.104,1.197 3.104,3.382 v 26.085 c 0,2.821 0,5.923 -3.595,5.923 -0.354,0 -0.775,0 -1.128,-0.072 v 0.776 c 0.564,0.071 1.128,0.143 1.762,0.143 2.044,0 4.019,-0.426 4.723,-0.426 0.636,0 2.468,0.426 4.019,0.426 0.917,0 1.691,-0.072 2.538,-0.143 v -0.776 c -0.493,0.072 -0.634,0.072 -1.408,0.072 -1.13,0 -1.694,-0.14 -2.047,-0.493 C 0.494,31.231 0,30.527 0,29.257 Z" /></g><g
           transform="translate(356.9584,60.5937)"
           id="g80"><path
             id="path82"
             style="fill:none;stroke:#4d4d4e;stroke-width:0.498;stroke-linecap:butt;stroke-linejoin:miter;stroke-miterlimit:4;stroke-dasharray:none;stroke-opacity:1"
             d="m 0,0 c 0,-1.621 0.426,-2.751 5.006,-2.751 4.09,0 7.121,0.636 10.151,2.54 1.975,1.198 3.245,2.256 3.455,4.581 h 0.494 c 0,-1.128 0,-2.042 -1.128,-3.806 -0.493,-0.775 -2.538,-3.453 -2.821,-4.653 -2.042,0.072 -4.159,0.142 -6.202,0.142 H -5.851 c -0.564,-0.07 -0.917,-0.142 -1.268,-0.142 -0.423,0 -0.847,0.072 -1.198,0.142 v 0.775 c 0.421,-0.07 0.845,-0.07 1.266,-0.07 2.4,0 3.104,1.197 3.104,3.382 v 26.085 c 0,2.821 0,5.923 -3.595,5.923 -0.354,0 -0.775,0 -1.128,-0.072 v 0.776 c 0.564,0.071 1.128,0.143 1.762,0.143 2.044,0 4.019,-0.426 4.723,-0.426 0.636,0 2.468,0.426 4.019,0.426 0.917,0 1.691,-0.072 2.538,-0.143 v -0.776 c -0.493,0.072 -0.634,0.072 -1.408,0.072 -1.13,0 -1.694,-0.14 -2.047,-0.493 C 0.494,31.231 0,30.527 0,29.257 Z" /></g><g
           transform="translate(386.1461,61.3695)"
           id="g84"><path
             id="path86"
             style="fill:#292929;fill-opacity:1;fill-rule:nonzero;stroke:none"
             d="m 0,0 c 0,-2.115 0.351,-3.596 6.061,-3.596 3.666,0 6.981,0.213 9.587,1.411 7.194,3.313 8.111,10.927 8.111,15.087 0,4.723 -1.694,10.221 -4.302,13.112 -3.809,4.3 -7.121,4.653 -11.985,4.653 H 1.057 C 0.421,30.667 0,30.031 0,29.47 Z m -8.319,-3.879 c 0.494,-0.068 0.915,-0.068 1.408,-0.068 1.624,0 2.964,1.055 2.964,5.358 v 26.154 c 0,3.596 -1.693,3.877 -4.232,3.877 v 0.776 c 2.752,0 4.513,-0.493 6.062,-0.493 1.2,0 5.289,0.493 10.789,0.493 3.806,0 9.798,0 14.523,-5.216 3.03,-3.456 4.864,-8.109 4.864,-12.973 0,-6.768 -4.16,-18.752 -19.036,-18.752 -4.372,0 -7.121,0.351 -9.868,0.351 -1.41,0 -4.866,-0.351 -5.783,-0.351 -0.776,0 -1.197,0.07 -1.691,0.07 z" /></g><g
           transform="translate(386.1461,61.3695)"
           id="g88"><path
             id="path90"
             style="fill:none;stroke:#4d4d4e;stroke-width:0.498;stroke-linecap:butt;stroke-linejoin:miter;stroke-miterlimit:4;stroke-dasharray:none;stroke-opacity:1"
             d="m 0,0 c 0,-2.115 0.351,-3.596 6.061,-3.596 3.666,0 6.981,0.213 9.587,1.411 7.194,3.313 8.111,10.927 8.111,15.087 0,4.723 -1.694,10.221 -4.302,13.112 -3.809,4.3 -7.121,4.653 -11.985,4.653 H 1.057 C 0.421,30.667 0,30.031 0,29.47 Z m -8.319,-3.879 c 0.494,-0.068 0.915,-0.068 1.408,-0.068 1.624,0 2.964,1.055 2.964,5.358 v 26.154 c 0,3.596 -1.693,3.877 -4.232,3.877 v 0.776 c 2.752,0 4.513,-0.493 6.062,-0.493 1.2,0 5.289,0.493 10.789,0.493 3.806,0 9.798,0 14.523,-5.216 3.03,-3.456 4.864,-8.109 4.864,-12.973 0,-6.768 -4.16,-18.752 -19.036,-18.752 -4.372,0 -7.121,0.351 -9.868,0.351 -1.41,0 -4.866,-0.351 -5.783,-0.351 -0.776,0 -1.197,0.07 -1.691,0.07 z" /></g><g
           transform="translate(141.9333,27.8454)"
           id="g92"><path
             id="path94"
             style="fill:#292929;fill-opacity:1;fill-rule:nonzero;stroke:none"
             d="m 0,0 c 0,2.089 -1.483,2.157 -2.225,2.157 -0.472,0 -0.943,-0.068 -1.415,-0.204 v 0.744 c 0.404,0.066 0.606,0.134 1.415,0.134 0.606,0 3.1,-0.269 3.64,-0.269 0.606,0 3.1,0.269 3.64,0.269 0.674,0 1.079,-0.068 1.619,-0.202 V 1.953 C 6.134,2.089 5.797,2.157 5.189,2.157 3.437,2.157 3.437,-0.606 3.437,-2.225 v -2.222 c 0,-0.608 0.135,-1.214 0.203,-1.619 -1.956,-1.687 -5.123,-4.382 -11.999,-4.382 -10.717,0 -15.37,7.954 -15.37,14.357 0,2.967 0.945,5.392 1.418,6.403 2.087,4.518 7.346,8.63 13.683,8.63 3.909,0 7.077,-1.82 8.965,-1.82 0.739,0 1.078,0.335 1.279,0.538 h 0.202 c 0,-1.684 0.877,-4.045 0.877,-5.797 0,-1.011 -0.133,-1.684 -0.337,-2.293 H 1.752 c 0.136,0.473 0.269,0.878 0.269,1.416 0,2.089 -4.113,6.674 -9.907,6.674 -5.325,0 -11.999,-3.235 -11.999,-13.213 0,-5.39 3.572,-13.884 11.999,-13.884 3.909,0 7.886,1.955 7.886,4.99 z" /></g><g
           transform="translate(141.9333,27.8454)"
           id="g96"><path
             id="path98"
             style="fill:none;stroke:#4d4d4e;stroke-width:0.60600001;stroke-linecap:butt;stroke-linejoin:miter;stroke-miterlimit:4;stroke-dasharray:none;stroke-opacity:1"
             d="m 0,0 c 0,2.089 -1.483,2.157 -2.225,2.157 -0.472,0 -0.943,-0.068 -1.415,-0.204 v 0.744 c 0.404,0.066 0.606,0.134 1.415,0.134 0.606,0 3.1,-0.269 3.64,-0.269 0.606,0 3.1,0.269 3.64,0.269 0.674,0 1.079,-0.068 1.619,-0.202 V 1.953 C 6.134,2.089 5.797,2.157 5.189,2.157 3.437,2.157 3.437,-0.606 3.437,-2.225 v -2.222 c 0,-0.608 0.135,-1.214 0.203,-1.619 -1.956,-1.687 -5.123,-4.382 -11.999,-4.382 -10.717,0 -15.37,7.954 -15.37,14.357 0,2.967 0.945,5.392 1.418,6.403 2.087,4.518 7.346,8.63 13.683,8.63 3.909,0 7.077,-1.82 8.965,-1.82 0.739,0 1.078,0.335 1.279,0.538 h 0.202 c 0,-1.684 0.877,-4.045 0.877,-5.797 0,-1.011 -0.133,-1.684 -0.337,-2.293 H 1.752 c 0.136,0.473 0.269,0.878 0.269,1.416 0,2.089 -4.113,6.674 -9.907,6.674 -5.325,0 -11.999,-3.235 -11.999,-13.213 0,-5.39 3.572,-13.884 11.999,-13.884 3.909,0 7.886,1.955 7.886,4.99 z" /></g><g
           transform="translate(181.7045,31.687)"
           id="g100"><path
             id="path102"
             style="fill:#292929;fill-opacity:1;fill-rule:nonzero;stroke:none"
             d="M 0,0 -3.909,9.706 -7.482,0 Z m -17.253,-13.279 c 0.334,0 0.671,-0.067 1.01,-0.067 0.335,0 1.009,0.067 1.076,0.135 0.068,0.068 1.011,0.742 1.081,0.878 0.538,0.807 1.28,1.887 1.549,2.627 l 9.369,24.807 h 0.742 L 6.943,-8.56 c 1.079,-2.695 1.484,-3.439 2.225,-4.517 0.068,-0.134 1.011,-0.202 1.348,-0.202 0.336,0 1.078,0.202 1.279,0.202 v -0.74 c -0.402,-0.07 -0.809,-0.135 -1.347,-0.135 -0.606,0 -2.562,0.269 -4.045,0.269 -1.549,0 -2.896,-0.269 -3.841,-0.269 -0.405,0 -0.742,0 -1.215,0.065 v 0.744 c 0.408,-0.068 0.878,-0.136 1.215,-0.136 0.269,0 0.741,0.068 1.01,0.136 0.337,0.066 0.81,0.608 0.81,1.483 0,0.674 -0.201,1.214 -0.337,1.549 l -3.64,9.032 h -8.427 l -2.964,-7.951 c -0.337,-0.945 -0.472,-1.755 -0.472,-2.225 0,-0.945 0.402,-2.091 1.684,-2.091 0.472,0 0.945,0.067 1.418,0.067 v -0.608 c -0.34,-0.065 -0.744,-0.065 -1.147,-0.065 -1.078,0 -2.629,0.135 -3.64,0.135 -1.282,0 -2.293,-0.135 -2.966,-0.135 -0.609,0 -0.81,0 -1.144,0.065 z" /></g><g
           transform="translate(181.7045,31.687)"
           id="g104"><path
             id="path106"
             style="fill:none;stroke:#4d4d4e;stroke-width:0.60600001;stroke-linecap:butt;stroke-linejoin:miter;stroke-miterlimit:4;stroke-dasharray:none;stroke-opacity:1"
             d="M 0,0 -3.909,9.706 -7.482,0 Z m -17.253,-13.279 c 0.334,0 0.671,-0.067 1.01,-0.067 0.335,0 1.009,0.067 1.076,0.135 0.068,0.068 1.011,0.742 1.081,0.878 0.538,0.807 1.28,1.887 1.549,2.627 l 9.369,24.807 h 0.742 L 6.943,-8.56 c 1.079,-2.695 1.484,-3.439 2.225,-4.517 0.068,-0.134 1.011,-0.202 1.348,-0.202 0.336,0 1.078,0.202 1.279,0.202 v -0.74 c -0.402,-0.07 -0.809,-0.135 -1.347,-0.135 -0.606,0 -2.562,0.269 -4.045,0.269 -1.549,0 -2.896,-0.269 -3.841,-0.269 -0.405,0 -0.742,0 -1.215,0.065 v 0.744 c 0.408,-0.068 0.878,-0.136 1.215,-0.136 0.269,0 0.741,0.068 1.01,0.136 0.337,0.066 0.81,0.608 0.81,1.483 0,0.674 -0.201,1.214 -0.337,1.549 l -3.64,9.032 h -8.427 l -2.964,-7.951 c -0.337,-0.945 -0.472,-1.755 -0.472,-2.225 0,-0.945 0.402,-2.091 1.684,-2.091 0.472,0 0.945,0.067 1.418,0.067 v -0.608 c -0.34,-0.065 -0.744,-0.065 -1.147,-0.065 -1.078,0 -2.629,0.135 -3.64,0.135 -1.282,0 -2.293,-0.135 -2.966,-0.135 -0.609,0 -0.81,0 -1.144,0.065 z" /></g><g
           transform="translate(217.8362,34.1144)"
           id="g108"><path
             id="path110"
             style="fill:#292929;fill-opacity:1;fill-rule:nonzero;stroke:none"
             d="m 0,0 c 1.078,-0.339 1.888,-0.606 3.507,-0.606 3.906,0 7.009,1.82 7.009,5.797 0,5.863 -5.999,5.863 -8.832,5.863 C 0.809,11.054 0,10.785 0,9.641 Z m -3.236,8.427 c 0,1.548 -0.47,2.425 -1.078,2.83 -0.606,0.337 -1.752,0.337 -2.089,0.337 -0.204,0 -0.54,0 -0.877,-0.068 v 0.609 c 0.269,0.065 0.54,0.133 0.877,0.133 0.943,0 3.167,-0.405 4.382,-0.337 l 3.436,0.204 c 1.35,0.065 3.437,0.201 4.113,0.201 1.752,0 8.56,-0.068 8.56,-6.876 0,-4.045 -3.236,-6.536 -8.427,-7.011 v -0.133 c 0.541,-0.269 0.81,-0.405 1.282,-1.147 l 6.202,-9.437 c 1.886,-2.831 3.841,-3.64 5.594,-3.64 0.47,0 1.146,0.201 1.415,0.405 0.068,-0.136 0.068,-0.405 0.136,-0.609 -0.541,-0.201 -1.619,-0.47 -3.844,-0.47 -1.885,0 -4.178,0 -6.808,4.111 L 3.977,-3.507 C 3.708,-3.102 2.629,-1.82 2.157,-1.619 1.82,-1.483 0.269,-1.28 0,-1.146 v -9.571 c 0,-2.763 0.068,-5.123 2.426,-5.123 0.472,0 0.877,0.068 1.35,0.068 v -0.674 c -0.878,-0.136 -1.011,-0.136 -1.35,-0.136 -0.269,0 -0.674,0.066 -1.212,0.136 -0.473,0.068 -1.078,0.133 -2.494,0.203 -0.673,0 -1.686,-0.07 -2.426,-0.135 -0.676,-0.068 -1.148,-0.138 -1.553,-0.138 -0.807,0 -1.348,0 -1.886,0.07 v 0.674 c 0.471,-0.068 1.011,-0.068 1.348,-0.068 0.538,0 1.011,0.068 1.619,0.269 0.942,1.078 0.942,1.483 0.942,3.17 z" /></g><g
           transform="translate(217.8362,34.1144)"
           id="g112"><path
             id="path114"
             style="fill:none;stroke:#4d4d4e;stroke-width:0.60600001;stroke-linecap:butt;stroke-linejoin:miter;stroke-miterlimit:4;stroke-dasharray:none;stroke-opacity:1"
             d="m 0,0 c 1.078,-0.339 1.888,-0.606 3.507,-0.606 3.906,0 7.009,1.82 7.009,5.797 0,5.863 -5.999,5.863 -8.832,5.863 C 0.809,11.054 0,10.785 0,9.641 Z m -3.236,8.427 c 0,1.548 -0.47,2.425 -1.078,2.83 -0.606,0.337 -1.752,0.337 -2.089,0.337 -0.204,0 -0.54,0 -0.877,-0.068 v 0.609 c 0.269,0.065 0.54,0.133 0.877,0.133 0.943,0 3.167,-0.405 4.382,-0.337 l 3.436,0.204 c 1.35,0.065 3.437,0.201 4.113,0.201 1.752,0 8.56,-0.068 8.56,-6.876 0,-4.045 -3.236,-6.536 -8.427,-7.011 v -0.133 c 0.541,-0.269 0.81,-0.405 1.282,-1.147 l 6.202,-9.437 c 1.886,-2.831 3.841,-3.64 5.594,-3.64 0.47,0 1.146,0.201 1.415,0.405 0.068,-0.136 0.068,-0.405 0.136,-0.609 -0.541,-0.201 -1.619,-0.47 -3.844,-0.47 -1.885,0 -4.178,0 -6.808,4.111 L 3.977,-3.507 C 3.708,-3.102 2.629,-1.82 2.157,-1.619 1.82,-1.483 0.269,-1.28 0,-1.146 v -9.571 c 0,-2.763 0.068,-5.123 2.426,-5.123 0.472,0 0.877,0.068 1.35,0.068 v -0.674 c -0.878,-0.136 -1.011,-0.136 -1.35,-0.136 -0.269,0 -0.674,0.066 -1.212,0.136 -0.473,0.068 -1.078,0.133 -2.494,0.203 -0.673,0 -1.686,-0.07 -2.426,-0.135 -0.676,-0.068 -1.148,-0.138 -1.553,-0.138 -0.807,0 -1.348,0 -1.886,0.07 v 0.674 c 0.471,-0.068 1.011,-0.068 1.348,-0.068 0.538,0 1.011,0.068 1.619,0.269 0.942,1.078 0.942,1.483 0.942,3.17 z" /></g><g
           transform="translate(262.3938,21.5091)"
           id="g116"><path
             id="path118"
             style="fill:#292929;fill-opacity:1;fill-rule:nonzero;stroke:none"
             d="m 0,0 c 0,-1.619 0,-2.63 6.199,-2.63 2.63,0 12.877,0 12.877,11.866 0,5.121 -2.361,14.355 -12.942,14.355 C 0,23.591 0,23.457 0,21.974 Z m -7.484,-2.966 c 0.339,-0.066 0.945,-0.136 1.35,-0.136 0.269,0 1.28,0.07 1.684,0.339 0.541,0.473 1.011,1.212 1.011,3.505 v 20.827 c 0,1.35 -0.742,2.361 -1.28,2.494 -0.337,0.068 -0.741,0.068 -1.214,0.068 -0.674,0 -0.943,-0.136 -1.415,-0.136 v 0.744 c 0.674,0.134 0.945,0.134 1.483,0.134 1.684,0 2.831,-0.337 4.852,-0.337 1.551,0 3.575,0.337 8.157,0.337 13.214,0 15.705,-10.582 15.705,-14.425 0,-3.844 -1.549,-7.954 -5.257,-11.122 -3.034,-2.561 -6.269,-3.099 -9.638,-3.099 -2.157,0 -7.821,0.201 -9.1,0.201 -1.348,0 -3.91,-0.201 -4.653,-0.201 -0.672,0 -1.346,0.065 -1.685,0.135 z" /></g><g
           transform="translate(262.3938,21.5091)"
           id="g120"><path
             id="path122"
             style="fill:none;stroke:#4d4d4e;stroke-width:0.60600001;stroke-linecap:butt;stroke-linejoin:miter;stroke-miterlimit:4;stroke-dasharray:none;stroke-opacity:1"
             d="m 0,0 c 0,-1.619 0,-2.63 6.199,-2.63 2.63,0 12.877,0 12.877,11.866 0,5.121 -2.361,14.355 -12.942,14.355 C 0,23.591 0,23.457 0,21.974 Z m -7.484,-2.966 c 0.339,-0.066 0.945,-0.136 1.35,-0.136 0.269,0 1.28,0.07 1.684,0.339 0.541,0.473 1.011,1.212 1.011,3.505 v 20.827 c 0,1.35 -0.742,2.361 -1.28,2.494 -0.337,0.068 -0.741,0.068 -1.214,0.068 -0.674,0 -0.943,-0.136 -1.415,-0.136 v 0.744 c 0.674,0.134 0.945,0.134 1.483,0.134 1.684,0 2.831,-0.337 4.852,-0.337 1.551,0 3.575,0.337 8.157,0.337 13.214,0 15.705,-10.582 15.705,-14.425 0,-3.844 -1.549,-7.954 -5.257,-11.122 -3.034,-2.561 -6.269,-3.099 -9.638,-3.099 -2.157,0 -7.821,0.201 -9.1,0.201 -1.348,0 -3.91,-0.201 -4.653,-0.201 -0.672,0 -1.346,0.065 -1.685,0.135 z" /></g><g
           transform="translate(324.2055,40.5842)"
           id="g124"><path
             id="path126"
             style="fill:#292929;fill-opacity:1;fill-rule:nonzero;stroke:none"
             d="m 0,0 c -0.405,4.653 -7.886,4.854 -9.437,4.854 -1.144,0 -1.685,-0.201 -2.358,-0.54 -0.134,-0.337 -0.337,-0.672 -0.337,-1.011 v -9.975 h 4.112 c 1.818,0 3.839,0 3.839,1.953 0,0.541 -0.201,1.079 -0.4,1.619 0.134,0.068 0.335,0.068 0.471,0.134 0.201,-0.269 0.404,-0.471 0.538,-1.079 0.203,-0.807 0.067,-2.089 0.203,-2.896 0.068,-0.606 1.079,-3.17 1.079,-3.64 v -0.943 h -0.473 c -0.809,3.233 -2.426,3.434 -9.369,3.434 v -11.928 c 0,-1.484 1.01,-1.484 2.966,-1.484 3.235,0 10.38,0 11.391,4.923 h 0.472 c -0.068,-1.687 -0.271,-1.956 -1.684,-3.98 -1.081,-1.481 -1.214,-1.684 -1.619,-2.627 -0.742,0.133 -1.415,0.201 -2.091,0.271 -0.875,0.066 -3.505,0.066 -4.717,0.066 -2.225,0 -4.515,0.136 -6.74,0.136 -1.214,0 -2.426,-0.136 -3.64,-0.136 -1.483,0 -1.616,0 -2.159,0.065 v 0.744 c 0.473,-0.067 0.809,-0.135 1.284,-0.135 2.763,0 3.098,1.551 3.098,3.708 v 20.76 c 0,1.82 -0.269,2.966 -2.155,2.966 l -1.888,-0.136 v 0.81 l 1.011,0.065 c 1.415,0.07 7.481,-0.065 8.763,-0.065 5.73,0 6.066,0.065 8.427,0.404 C -1.212,5.596 0.271,1.82 0.271,1.755 0.405,1.214 0.405,0.608 0.405,0 Z" /></g><g
           transform="translate(324.2055,40.5842)"
           id="g128"><path
             id="path130"
             style="fill:none;stroke:#4d4d4e;stroke-width:0.60600001;stroke-linecap:butt;stroke-linejoin:miter;stroke-miterlimit:4;stroke-dasharray:none;stroke-opacity:1"
             d="m 0,0 c -0.405,4.653 -7.886,4.854 -9.437,4.854 -1.144,0 -1.685,-0.201 -2.358,-0.54 -0.134,-0.337 -0.337,-0.672 -0.337,-1.011 v -9.975 h 4.112 c 1.818,0 3.839,0 3.839,1.953 0,0.541 -0.201,1.079 -0.4,1.619 0.134,0.068 0.335,0.068 0.471,0.134 0.201,-0.269 0.404,-0.471 0.538,-1.079 0.203,-0.807 0.067,-2.089 0.203,-2.896 0.068,-0.606 1.079,-3.17 1.079,-3.64 v -0.943 h -0.473 c -0.809,3.233 -2.426,3.434 -9.369,3.434 v -11.928 c 0,-1.484 1.01,-1.484 2.966,-1.484 3.235,0 10.38,0 11.391,4.923 h 0.472 c -0.068,-1.687 -0.271,-1.956 -1.684,-3.98 -1.081,-1.481 -1.214,-1.684 -1.619,-2.627 -0.742,0.133 -1.415,0.201 -2.091,0.271 -0.875,0.066 -3.505,0.066 -4.717,0.066 -2.225,0 -4.515,0.136 -6.74,0.136 -1.214,0 -2.426,-0.136 -3.64,-0.136 -1.483,0 -1.616,0 -2.159,0.065 v 0.744 c 0.473,-0.067 0.809,-0.135 1.284,-0.135 2.763,0 3.098,1.551 3.098,3.708 v 20.76 c 0,1.82 -0.269,2.966 -2.155,2.966 l -1.888,-0.136 v 0.81 l 1.011,0.065 c 1.415,0.07 7.481,-0.065 8.763,-0.065 5.73,0 6.066,0.065 8.427,0.404 C -1.212,5.596 0.271,1.82 0.271,1.755 0.405,1.214 0.405,0.608 0.405,0 Z" /></g><g
           transform="translate(345.17,18.4078)"
           id="g132"><path
             id="path134"
             style="fill:#292929;fill-opacity:1;fill-rule:nonzero;stroke:none"
             d="m 0,0 c 0.339,-0.066 1.013,-0.133 1.485,-0.133 0.202,0 1.28,0.067 1.413,0.133 1.619,1.013 1.687,5.395 1.687,5.596 V 25.209 L 3.911,25.951 C 3.102,26.828 2.697,27.163 1.485,27.163 0.943,27.163 0.54,27.097 0,27.032 v 0.674 c 0.943,0.201 2.024,0.269 3.102,0.269 2.089,0 3.572,-0.136 4.651,-1.348 L 27.635,4.113 v 18.132 c 0,1.886 -0.133,3.776 -1.48,4.988 -0.471,0.068 -0.875,0.068 -1.348,0.068 -0.407,0 -0.809,0 -1.214,-0.068 v 0.606 c 0.674,0.136 1.214,0.136 1.752,0.136 1.214,0 2.157,-0.34 3.168,-0.34 0.741,0 1.82,0.34 2.561,0.34 0.81,0 1.282,-0.068 1.888,-0.204 v -0.674 c -0.809,0.136 -0.943,0.136 -2.36,0.136 -1.011,-0.674 -1.685,-1.146 -1.685,-4.449 V -0.47 c 0,-0.473 -0.47,-0.606 -0.807,-0.606 -0.203,0 -0.475,0.065 -0.741,0.402 L 5.799,23.93 V 3.776 c 0,-1.282 0.538,-3.909 3.03,-3.909 0.475,0 0.945,0.067 1.35,0.133 v -0.674 c -0.538,-0.065 -1.147,-0.135 -1.82,-0.135 -0.742,0 -1.416,0.273 -3.236,0.273 -1.551,0 -2.83,-0.273 -3.504,-0.273 -0.875,0 -1.147,0.07 -1.619,0.135 z" /></g><g
           transform="translate(345.17,18.4078)"
           id="g136"><path
             id="path138"
             style="fill:none;stroke:#4d4d4e;stroke-width:0.60600001;stroke-linecap:butt;stroke-linejoin:miter;stroke-miterlimit:4;stroke-dasharray:none;stroke-opacity:1"
             d="m 0,0 c 0.339,-0.066 1.013,-0.133 1.485,-0.133 0.202,0 1.28,0.067 1.413,0.133 1.619,1.013 1.687,5.395 1.687,5.596 V 25.209 L 3.911,25.951 C 3.102,26.828 2.697,27.163 1.485,27.163 0.943,27.163 0.54,27.097 0,27.032 v 0.674 c 0.943,0.201 2.024,0.269 3.102,0.269 2.089,0 3.572,-0.136 4.651,-1.348 L 27.635,4.113 v 18.132 c 0,1.886 -0.133,3.776 -1.48,4.988 -0.471,0.068 -0.875,0.068 -1.348,0.068 -0.407,0 -0.809,0 -1.214,-0.068 v 0.606 c 0.674,0.136 1.214,0.136 1.752,0.136 1.214,0 2.157,-0.34 3.168,-0.34 0.741,0 1.82,0.34 2.561,0.34 0.81,0 1.282,-0.068 1.888,-0.204 v -0.674 c -0.809,0.136 -0.943,0.136 -2.36,0.136 -1.011,-0.674 -1.685,-1.146 -1.685,-4.449 V -0.47 c 0,-0.473 -0.47,-0.606 -0.807,-0.606 -0.203,0 -0.475,0.065 -0.741,0.402 L 5.799,23.93 V 3.776 c 0,-1.282 0.538,-3.909 3.03,-3.909 0.475,0 0.945,0.067 1.35,0.133 v -0.674 c -0.538,-0.065 -1.147,-0.135 -1.82,-0.135 -0.742,0 -1.416,0.273 -3.236,0.273 -1.551,0 -2.83,-0.273 -3.504,-0.273 -0.875,0 -1.147,0.07 -1.619,0.135 z" /></g><g
           transform="translate(397.2789,27.104)"
           id="g140"><path
             id="path142"
             style="fill:#292929;fill-opacity:1;fill-rule:nonzero;stroke:none"
             d="m 0,0 c -0.201,-0.538 -0.337,-1.146 -0.337,-1.755 0,-2.021 3.034,-6.941 8.087,-6.941 3.98,0 6.001,2.967 6.001,5.865 0,3.168 -1.888,4.787 -5.593,7.886 -5.26,4.45 -6.675,5.664 -6.675,8.696 0,0.606 0.136,5.797 6.471,5.797 1.415,0 2.697,-0.201 4.585,-0.877 l 1.685,-0.608 c -0.136,-1.009 -0.136,-1.079 -0.136,-1.884 l 0.068,-2.227 c 0,-0.875 -0.134,-1.279 -0.473,-2.021 l -0.538,0.201 c 0.201,0.473 0.405,0.945 0.405,1.418 0,0.674 -1.079,4.917 -5.325,4.917 -2.159,0 -4.115,-1.076 -4.115,-3.301 0,-2.29 1.621,-3.572 4.99,-6.403 5.931,-4.919 7.753,-7.079 7.753,-10.784 0,-5.395 -4.922,-7.685 -8.426,-7.685 -2.494,0 -2.696,0.068 -8.897,2.426 -0.337,2.292 -0.473,3.64 -0.473,3.977 0,2.089 0,2.292 0.405,3.371 z" /></g><g
           transform="translate(397.2789,27.104)"
           id="g144"><path
             id="path146"
             style="fill:none;stroke:#4d4d4e;stroke-width:0.60600001;stroke-linecap:butt;stroke-linejoin:miter;stroke-miterlimit:4;stroke-dasharray:none;stroke-opacity:1"
             d="m 0,0 c -0.201,-0.538 -0.337,-1.146 -0.337,-1.755 0,-2.021 3.034,-6.941 8.087,-6.941 3.98,0 6.001,2.967 6.001,5.865 0,3.168 -1.888,4.787 -5.593,7.886 -5.26,4.45 -6.675,5.664 -6.675,8.696 0,0.606 0.136,5.797 6.471,5.797 1.415,0 2.697,-0.201 4.585,-0.877 l 1.685,-0.608 c -0.136,-1.009 -0.136,-1.079 -0.136,-1.884 l 0.068,-2.227 c 0,-0.875 -0.134,-1.279 -0.473,-2.021 l -0.538,0.201 c 0.201,0.473 0.405,0.945 0.405,1.418 0,0.674 -1.079,4.917 -5.325,4.917 -2.159,0 -4.115,-1.076 -4.115,-3.301 0,-2.29 1.621,-3.572 4.99,-6.403 5.931,-4.919 7.753,-7.079 7.753,-10.784 0,-5.395 -4.922,-7.685 -8.426,-7.685 -2.494,0 -2.696,0.068 -8.897,2.426 -0.337,2.292 -0.473,3.64 -0.473,3.977 0,2.089 0,2.292 0.405,3.371 z" /></g><g
           transform="translate(56.4737,107.2141)"
           id="g148"><path
             id="path150"
             style="fill:#80ba6e;fill-opacity:1;fill-rule:nonzero;stroke:none"
             d="m 0,0 c -26.751,0 -48.438,-21.686 -48.438,-48.435 0,-26.751 21.687,-48.436 48.438,-48.436 26.751,0 48.435,21.685 48.435,48.436 C 48.435,-21.686 26.751,0 0,0 m -8.817,-96.085 c 11.145,5.133 36.441,22.501 12.979,68.475 0,0 11.306,-27.123 5.448,-44.306 0,0 -37.671,20.849 -15.875,62.551 0,0 25.102,-12.094 25.102,-42.738 0,-31.075 -14.748,-40.882 -25.182,-44.391" /></g></g></g></g></svg>